<mxfile host="app.diagrams.net" modified="2023-08-18T08:35:08.622Z" agent="Mozilla/5.0 (X11; Linux x86_64) AppleWebKit/537.36 (KHTML, like Gecko) Chrome/116.0.0.0 Safari/537.36" version="21.6.8" etag="iX0b2nUea8sOwMO3XYUp" type="github">
  <diagram name="Page-1" id="qE_Iuf9_is86DIzy7JFs">
    <mxGraphModel>
      <root>
        <mxCell id="0" />
        <mxCell id="1" parent="0" />
      </root>
    </mxGraphModel>
  </diagram>
</mxfile>
